<mxfile host="app.diagrams.net" modified="2023-11-15T21:39:21.419Z" agent="Mozilla/5.0 (Macintosh; Intel Mac OS X 10_15_7) AppleWebKit/537.36 (KHTML, like Gecko) Chrome/117.0.0.0 Safari/537.36" etag="tLaPHoeiJtMIiYjfORSU" version="22.1.2" type="device">
  <diagram id="prtHgNgQTEPvFCAcTncT" name="Page-1">
    <mxGraphModel dx="5288" dy="2688" grid="1" gridSize="10" guides="1" tooltips="1" connect="1" arrows="1" fold="1" page="1" pageScale="1" pageWidth="1100" pageHeight="850" math="0" shadow="0">
      <root>
        <mxCell id="0" />
        <mxCell id="1" parent="0" />
        <mxCell id="3uwgx3B2-GUYWZ_OcOjJ-13" style="edgeStyle=orthogonalEdgeStyle;rounded=0;orthogonalLoop=1;jettySize=auto;html=1;exitX=0.5;exitY=1;exitDx=0;exitDy=0;entryX=0.5;entryY=0;entryDx=0;entryDy=0;" parent="1" source="3uwgx3B2-GUYWZ_OcOjJ-1" target="3uwgx3B2-GUYWZ_OcOjJ-2" edge="1">
          <mxGeometry relative="1" as="geometry">
            <Array as="points">
              <mxPoint x="975" y="60" />
              <mxPoint x="-1400" y="60" />
            </Array>
          </mxGeometry>
        </mxCell>
        <mxCell id="3uwgx3B2-GUYWZ_OcOjJ-14" style="edgeStyle=orthogonalEdgeStyle;rounded=0;orthogonalLoop=1;jettySize=auto;html=1;exitX=0.5;exitY=1;exitDx=0;exitDy=0;" parent="1" source="3uwgx3B2-GUYWZ_OcOjJ-1" target="3uwgx3B2-GUYWZ_OcOjJ-3" edge="1">
          <mxGeometry relative="1" as="geometry" />
        </mxCell>
        <mxCell id="3uwgx3B2-GUYWZ_OcOjJ-15" style="edgeStyle=orthogonalEdgeStyle;rounded=0;orthogonalLoop=1;jettySize=auto;html=1;exitX=0.5;exitY=1;exitDx=0;exitDy=0;entryX=0.5;entryY=0;entryDx=0;entryDy=0;" parent="1" source="3uwgx3B2-GUYWZ_OcOjJ-1" target="3uwgx3B2-GUYWZ_OcOjJ-4" edge="1">
          <mxGeometry relative="1" as="geometry" />
        </mxCell>
        <mxCell id="3uwgx3B2-GUYWZ_OcOjJ-16" style="edgeStyle=orthogonalEdgeStyle;rounded=0;orthogonalLoop=1;jettySize=auto;html=1;exitX=0.5;exitY=1;exitDx=0;exitDy=0;entryX=0.5;entryY=0;entryDx=0;entryDy=0;" parent="1" source="3uwgx3B2-GUYWZ_OcOjJ-1" target="3uwgx3B2-GUYWZ_OcOjJ-5" edge="1">
          <mxGeometry relative="1" as="geometry" />
        </mxCell>
        <mxCell id="3uwgx3B2-GUYWZ_OcOjJ-17" style="edgeStyle=orthogonalEdgeStyle;rounded=0;orthogonalLoop=1;jettySize=auto;html=1;exitX=0.5;exitY=1;exitDx=0;exitDy=0;entryX=0.5;entryY=0;entryDx=0;entryDy=0;" parent="1" source="3uwgx3B2-GUYWZ_OcOjJ-1" target="3uwgx3B2-GUYWZ_OcOjJ-6" edge="1">
          <mxGeometry relative="1" as="geometry" />
        </mxCell>
        <mxCell id="3uwgx3B2-GUYWZ_OcOjJ-18" style="edgeStyle=orthogonalEdgeStyle;rounded=0;orthogonalLoop=1;jettySize=auto;html=1;exitX=0.5;exitY=1;exitDx=0;exitDy=0;" parent="1" source="3uwgx3B2-GUYWZ_OcOjJ-1" target="3uwgx3B2-GUYWZ_OcOjJ-7" edge="1">
          <mxGeometry relative="1" as="geometry" />
        </mxCell>
        <mxCell id="3uwgx3B2-GUYWZ_OcOjJ-19" style="edgeStyle=orthogonalEdgeStyle;rounded=0;orthogonalLoop=1;jettySize=auto;html=1;exitX=0.5;exitY=1;exitDx=0;exitDy=0;" parent="1" source="3uwgx3B2-GUYWZ_OcOjJ-1" target="3uwgx3B2-GUYWZ_OcOjJ-8" edge="1">
          <mxGeometry relative="1" as="geometry" />
        </mxCell>
        <mxCell id="3uwgx3B2-GUYWZ_OcOjJ-20" style="edgeStyle=orthogonalEdgeStyle;rounded=0;orthogonalLoop=1;jettySize=auto;html=1;exitX=0.5;exitY=1;exitDx=0;exitDy=0;" parent="1" source="3uwgx3B2-GUYWZ_OcOjJ-1" target="3uwgx3B2-GUYWZ_OcOjJ-9" edge="1">
          <mxGeometry relative="1" as="geometry" />
        </mxCell>
        <mxCell id="3uwgx3B2-GUYWZ_OcOjJ-21" style="edgeStyle=orthogonalEdgeStyle;rounded=0;orthogonalLoop=1;jettySize=auto;html=1;exitX=0.5;exitY=1;exitDx=0;exitDy=0;" parent="1" source="3uwgx3B2-GUYWZ_OcOjJ-1" target="3uwgx3B2-GUYWZ_OcOjJ-10" edge="1">
          <mxGeometry relative="1" as="geometry" />
        </mxCell>
        <mxCell id="3uwgx3B2-GUYWZ_OcOjJ-23" style="edgeStyle=orthogonalEdgeStyle;rounded=0;orthogonalLoop=1;jettySize=auto;html=1;exitX=0.5;exitY=1;exitDx=0;exitDy=0;entryX=0.5;entryY=0;entryDx=0;entryDy=0;" parent="1" source="3uwgx3B2-GUYWZ_OcOjJ-1" target="3uwgx3B2-GUYWZ_OcOjJ-12" edge="1">
          <mxGeometry relative="1" as="geometry" />
        </mxCell>
        <mxCell id="3uwgx3B2-GUYWZ_OcOjJ-1" value="artist_management.db" style="rounded=0;whiteSpace=wrap;html=1;" parent="1" vertex="1">
          <mxGeometry x="880" y="-50" width="190" height="60" as="geometry" />
        </mxCell>
        <mxCell id="3uwgx3B2-GUYWZ_OcOjJ-27" style="edgeStyle=orthogonalEdgeStyle;rounded=0;orthogonalLoop=1;jettySize=auto;html=1;exitX=0.5;exitY=1;exitDx=0;exitDy=0;" parent="1" source="3uwgx3B2-GUYWZ_OcOjJ-2" target="3uwgx3B2-GUYWZ_OcOjJ-24" edge="1">
          <mxGeometry relative="1" as="geometry">
            <Array as="points">
              <mxPoint x="-1400" y="170" />
              <mxPoint x="-1550" y="170" />
            </Array>
          </mxGeometry>
        </mxCell>
        <mxCell id="3uwgx3B2-GUYWZ_OcOjJ-28" style="edgeStyle=orthogonalEdgeStyle;rounded=0;orthogonalLoop=1;jettySize=auto;html=1;exitX=0.5;exitY=1;exitDx=0;exitDy=0;" parent="1" source="3uwgx3B2-GUYWZ_OcOjJ-2" target="3uwgx3B2-GUYWZ_OcOjJ-26" edge="1">
          <mxGeometry relative="1" as="geometry">
            <Array as="points">
              <mxPoint x="-1400" y="170" />
              <mxPoint x="-1270" y="170" />
            </Array>
          </mxGeometry>
        </mxCell>
        <mxCell id="3uwgx3B2-GUYWZ_OcOjJ-2" value="artist" style="rounded=0;whiteSpace=wrap;html=1;" parent="1" vertex="1">
          <mxGeometry x="-1450" y="120" width="100" height="30" as="geometry" />
        </mxCell>
        <mxCell id="3uwgx3B2-GUYWZ_OcOjJ-3" value="headliner" style="rounded=0;whiteSpace=wrap;html=1;" parent="1" vertex="1">
          <mxGeometry x="-590" y="110" width="100" height="30" as="geometry" />
        </mxCell>
        <mxCell id="3uwgx3B2-GUYWZ_OcOjJ-4" value="opener" style="rounded=0;whiteSpace=wrap;html=1;" parent="1" vertex="1">
          <mxGeometry x="-220" y="110" width="100" height="30" as="geometry" />
        </mxCell>
        <mxCell id="WRfrVHnAXv1RUym7im4i-21" style="edgeStyle=orthogonalEdgeStyle;rounded=0;orthogonalLoop=1;jettySize=auto;html=1;exitX=0.5;exitY=1;exitDx=0;exitDy=0;" edge="1" parent="1" source="3uwgx3B2-GUYWZ_OcOjJ-5" target="WRfrVHnAXv1RUym7im4i-19">
          <mxGeometry relative="1" as="geometry" />
        </mxCell>
        <mxCell id="WRfrVHnAXv1RUym7im4i-22" style="edgeStyle=orthogonalEdgeStyle;rounded=0;orthogonalLoop=1;jettySize=auto;html=1;exitX=0.5;exitY=1;exitDx=0;exitDy=0;entryX=0.5;entryY=0;entryDx=0;entryDy=0;" edge="1" parent="1" source="3uwgx3B2-GUYWZ_OcOjJ-5" target="WRfrVHnAXv1RUym7im4i-20">
          <mxGeometry relative="1" as="geometry" />
        </mxCell>
        <mxCell id="3uwgx3B2-GUYWZ_OcOjJ-5" value="tour" style="rounded=0;whiteSpace=wrap;html=1;" parent="1" vertex="1">
          <mxGeometry x="120" y="110" width="100" height="30" as="geometry" />
        </mxCell>
        <mxCell id="WRfrVHnAXv1RUym7im4i-34" style="edgeStyle=orthogonalEdgeStyle;rounded=0;orthogonalLoop=1;jettySize=auto;html=1;exitX=0.5;exitY=1;exitDx=0;exitDy=0;entryX=0.5;entryY=0;entryDx=0;entryDy=0;" edge="1" parent="1" source="3uwgx3B2-GUYWZ_OcOjJ-6" target="WRfrVHnAXv1RUym7im4i-32">
          <mxGeometry relative="1" as="geometry" />
        </mxCell>
        <mxCell id="WRfrVHnAXv1RUym7im4i-35" style="edgeStyle=orthogonalEdgeStyle;rounded=0;orthogonalLoop=1;jettySize=auto;html=1;exitX=0.5;exitY=1;exitDx=0;exitDy=0;entryX=0.5;entryY=0;entryDx=0;entryDy=0;" edge="1" parent="1" source="3uwgx3B2-GUYWZ_OcOjJ-6" target="WRfrVHnAXv1RUym7im4i-33">
          <mxGeometry relative="1" as="geometry" />
        </mxCell>
        <mxCell id="3uwgx3B2-GUYWZ_OcOjJ-6" value="tour_attendance" style="rounded=0;whiteSpace=wrap;html=1;" parent="1" vertex="1">
          <mxGeometry x="570" y="110" width="100" height="30" as="geometry" />
        </mxCell>
        <mxCell id="WRfrVHnAXv1RUym7im4i-55" style="edgeStyle=orthogonalEdgeStyle;rounded=0;orthogonalLoop=1;jettySize=auto;html=1;exitX=0.5;exitY=1;exitDx=0;exitDy=0;" edge="1" parent="1" source="3uwgx3B2-GUYWZ_OcOjJ-7" target="WRfrVHnAXv1RUym7im4i-45">
          <mxGeometry relative="1" as="geometry" />
        </mxCell>
        <mxCell id="WRfrVHnAXv1RUym7im4i-56" style="edgeStyle=orthogonalEdgeStyle;rounded=0;orthogonalLoop=1;jettySize=auto;html=1;exitX=0.5;exitY=1;exitDx=0;exitDy=0;" edge="1" parent="1" source="3uwgx3B2-GUYWZ_OcOjJ-7" target="WRfrVHnAXv1RUym7im4i-46">
          <mxGeometry relative="1" as="geometry" />
        </mxCell>
        <mxCell id="3uwgx3B2-GUYWZ_OcOjJ-7" value="genre" style="rounded=0;whiteSpace=wrap;html=1;" parent="1" vertex="1">
          <mxGeometry x="1110" y="110" width="100" height="30" as="geometry" />
        </mxCell>
        <mxCell id="WRfrVHnAXv1RUym7im4i-59" style="edgeStyle=orthogonalEdgeStyle;rounded=0;orthogonalLoop=1;jettySize=auto;html=1;exitX=0.5;exitY=1;exitDx=0;exitDy=0;entryX=0.5;entryY=0;entryDx=0;entryDy=0;" edge="1" parent="1" source="3uwgx3B2-GUYWZ_OcOjJ-8" target="WRfrVHnAXv1RUym7im4i-50">
          <mxGeometry relative="1" as="geometry" />
        </mxCell>
        <mxCell id="WRfrVHnAXv1RUym7im4i-60" style="edgeStyle=orthogonalEdgeStyle;rounded=0;orthogonalLoop=1;jettySize=auto;html=1;exitX=0.5;exitY=1;exitDx=0;exitDy=0;" edge="1" parent="1" source="3uwgx3B2-GUYWZ_OcOjJ-8" target="WRfrVHnAXv1RUym7im4i-51">
          <mxGeometry relative="1" as="geometry" />
        </mxCell>
        <mxCell id="3uwgx3B2-GUYWZ_OcOjJ-8" value="artist_genre" style="rounded=0;whiteSpace=wrap;html=1;" parent="1" vertex="1">
          <mxGeometry x="1450" y="110" width="100" height="30" as="geometry" />
        </mxCell>
        <mxCell id="WRfrVHnAXv1RUym7im4i-65" style="edgeStyle=orthogonalEdgeStyle;rounded=0;orthogonalLoop=1;jettySize=auto;html=1;exitX=0.5;exitY=1;exitDx=0;exitDy=0;entryX=0.5;entryY=0;entryDx=0;entryDy=0;" edge="1" parent="1" source="3uwgx3B2-GUYWZ_OcOjJ-9" target="WRfrVHnAXv1RUym7im4i-63">
          <mxGeometry relative="1" as="geometry" />
        </mxCell>
        <mxCell id="WRfrVHnAXv1RUym7im4i-66" style="edgeStyle=orthogonalEdgeStyle;rounded=0;orthogonalLoop=1;jettySize=auto;html=1;exitX=0.5;exitY=1;exitDx=0;exitDy=0;entryX=0.5;entryY=0;entryDx=0;entryDy=0;" edge="1" parent="1" source="3uwgx3B2-GUYWZ_OcOjJ-9" target="WRfrVHnAXv1RUym7im4i-64">
          <mxGeometry relative="1" as="geometry" />
        </mxCell>
        <mxCell id="3uwgx3B2-GUYWZ_OcOjJ-9" value="album" style="rounded=0;whiteSpace=wrap;html=1;" parent="1" vertex="1">
          <mxGeometry x="1950" y="110" width="100" height="30" as="geometry" />
        </mxCell>
        <mxCell id="3uwgx3B2-GUYWZ_OcOjJ-10" value="single" style="rounded=0;whiteSpace=wrap;html=1;" parent="1" vertex="1">
          <mxGeometry x="2610" y="110" width="100" height="30" as="geometry" />
        </mxCell>
        <mxCell id="WRfrVHnAXv1RUym7im4i-94" style="edgeStyle=orthogonalEdgeStyle;rounded=0;orthogonalLoop=1;jettySize=auto;html=1;exitX=0.5;exitY=1;exitDx=0;exitDy=0;entryX=0.5;entryY=0;entryDx=0;entryDy=0;" edge="1" parent="1" source="3uwgx3B2-GUYWZ_OcOjJ-11" target="WRfrVHnAXv1RUym7im4i-92">
          <mxGeometry relative="1" as="geometry" />
        </mxCell>
        <mxCell id="WRfrVHnAXv1RUym7im4i-95" style="edgeStyle=orthogonalEdgeStyle;rounded=0;orthogonalLoop=1;jettySize=auto;html=1;entryX=0.5;entryY=0;entryDx=0;entryDy=0;" edge="1" parent="1" source="3uwgx3B2-GUYWZ_OcOjJ-11" target="WRfrVHnAXv1RUym7im4i-93">
          <mxGeometry relative="1" as="geometry" />
        </mxCell>
        <mxCell id="3uwgx3B2-GUYWZ_OcOjJ-11" value="MA_venue" style="rounded=0;whiteSpace=wrap;html=1;" parent="1" vertex="1">
          <mxGeometry x="3080" y="110" width="100" height="30" as="geometry" />
        </mxCell>
        <mxCell id="WRfrVHnAXv1RUym7im4i-109" style="edgeStyle=orthogonalEdgeStyle;rounded=0;orthogonalLoop=1;jettySize=auto;html=1;exitX=0.5;exitY=1;exitDx=0;exitDy=0;entryX=0.5;entryY=0;entryDx=0;entryDy=0;" edge="1" parent="1" source="3uwgx3B2-GUYWZ_OcOjJ-12" target="WRfrVHnAXv1RUym7im4i-104">
          <mxGeometry relative="1" as="geometry">
            <Array as="points">
              <mxPoint x="3730" y="150" />
              <mxPoint x="3640" y="150" />
            </Array>
          </mxGeometry>
        </mxCell>
        <mxCell id="WRfrVHnAXv1RUym7im4i-110" style="edgeStyle=orthogonalEdgeStyle;rounded=0;orthogonalLoop=1;jettySize=auto;html=1;exitX=0.5;exitY=1;exitDx=0;exitDy=0;" edge="1" parent="1" source="3uwgx3B2-GUYWZ_OcOjJ-12" target="WRfrVHnAXv1RUym7im4i-105">
          <mxGeometry relative="1" as="geometry">
            <Array as="points">
              <mxPoint x="3730" y="150" />
              <mxPoint x="3820" y="150" />
            </Array>
          </mxGeometry>
        </mxCell>
        <mxCell id="3uwgx3B2-GUYWZ_OcOjJ-12" value="customer" style="rounded=0;whiteSpace=wrap;html=1;" parent="1" vertex="1">
          <mxGeometry x="3680" y="110" width="100" height="30" as="geometry" />
        </mxCell>
        <mxCell id="3uwgx3B2-GUYWZ_OcOjJ-22" style="edgeStyle=orthogonalEdgeStyle;rounded=0;orthogonalLoop=1;jettySize=auto;html=1;exitX=0.5;exitY=1;exitDx=0;exitDy=0;entryX=0.5;entryY=0;entryDx=0;entryDy=0;" parent="1" source="3uwgx3B2-GUYWZ_OcOjJ-1" target="3uwgx3B2-GUYWZ_OcOjJ-11" edge="1">
          <mxGeometry relative="1" as="geometry" />
        </mxCell>
        <mxCell id="3uwgx3B2-GUYWZ_OcOjJ-41" style="edgeStyle=orthogonalEdgeStyle;rounded=0;orthogonalLoop=1;jettySize=auto;html=1;exitX=0.5;exitY=1;exitDx=0;exitDy=0;entryX=0.5;entryY=0;entryDx=0;entryDy=0;" parent="1" source="3uwgx3B2-GUYWZ_OcOjJ-26" target="3uwgx3B2-GUYWZ_OcOjJ-40" edge="1">
          <mxGeometry relative="1" as="geometry" />
        </mxCell>
        <mxCell id="3uwgx3B2-GUYWZ_OcOjJ-42" style="edgeStyle=orthogonalEdgeStyle;rounded=0;orthogonalLoop=1;jettySize=auto;html=1;exitX=0.5;exitY=1;exitDx=0;exitDy=0;entryX=0.5;entryY=0;entryDx=0;entryDy=0;" parent="1" source="3uwgx3B2-GUYWZ_OcOjJ-24" target="3uwgx3B2-GUYWZ_OcOjJ-36" edge="1">
          <mxGeometry relative="1" as="geometry" />
        </mxCell>
        <mxCell id="3uwgx3B2-GUYWZ_OcOjJ-43" style="edgeStyle=orthogonalEdgeStyle;rounded=0;orthogonalLoop=1;jettySize=auto;html=1;exitX=0.5;exitY=1;exitDx=0;exitDy=0;" parent="1" source="3uwgx3B2-GUYWZ_OcOjJ-24" target="3uwgx3B2-GUYWZ_OcOjJ-34" edge="1">
          <mxGeometry relative="1" as="geometry" />
        </mxCell>
        <mxCell id="3uwgx3B2-GUYWZ_OcOjJ-24" value="row 1" style="rounded=0;whiteSpace=wrap;html=1;" parent="1" vertex="1">
          <mxGeometry x="-1590" y="200" width="80" height="20" as="geometry" />
        </mxCell>
        <mxCell id="3uwgx3B2-GUYWZ_OcOjJ-44" style="edgeStyle=orthogonalEdgeStyle;rounded=0;orthogonalLoop=1;jettySize=auto;html=1;exitX=0.5;exitY=1;exitDx=0;exitDy=0;entryX=0.5;entryY=0;entryDx=0;entryDy=0;" parent="1" source="3uwgx3B2-GUYWZ_OcOjJ-26" target="3uwgx3B2-GUYWZ_OcOjJ-35" edge="1">
          <mxGeometry relative="1" as="geometry" />
        </mxCell>
        <mxCell id="3uwgx3B2-GUYWZ_OcOjJ-45" style="edgeStyle=orthogonalEdgeStyle;rounded=0;orthogonalLoop=1;jettySize=auto;html=1;exitX=0.5;exitY=1;exitDx=0;exitDy=0;" parent="1" source="3uwgx3B2-GUYWZ_OcOjJ-26" target="3uwgx3B2-GUYWZ_OcOjJ-37" edge="1">
          <mxGeometry relative="1" as="geometry" />
        </mxCell>
        <mxCell id="3uwgx3B2-GUYWZ_OcOjJ-46" style="edgeStyle=orthogonalEdgeStyle;rounded=0;orthogonalLoop=1;jettySize=auto;html=1;exitX=0.5;exitY=1;exitDx=0;exitDy=0;entryX=0.5;entryY=0;entryDx=0;entryDy=0;" parent="1" source="3uwgx3B2-GUYWZ_OcOjJ-26" target="3uwgx3B2-GUYWZ_OcOjJ-38" edge="1">
          <mxGeometry relative="1" as="geometry" />
        </mxCell>
        <mxCell id="3uwgx3B2-GUYWZ_OcOjJ-47" style="edgeStyle=orthogonalEdgeStyle;rounded=0;orthogonalLoop=1;jettySize=auto;html=1;exitX=0.5;exitY=1;exitDx=0;exitDy=0;entryX=0.5;entryY=0;entryDx=0;entryDy=0;" parent="1" source="3uwgx3B2-GUYWZ_OcOjJ-26" target="3uwgx3B2-GUYWZ_OcOjJ-39" edge="1">
          <mxGeometry relative="1" as="geometry" />
        </mxCell>
        <mxCell id="3uwgx3B2-GUYWZ_OcOjJ-26" value="row n" style="rounded=0;whiteSpace=wrap;html=1;" parent="1" vertex="1">
          <mxGeometry x="-1310" y="200" width="80" height="20" as="geometry" />
        </mxCell>
        <mxCell id="3uwgx3B2-GUYWZ_OcOjJ-29" style="edgeStyle=orthogonalEdgeStyle;rounded=0;orthogonalLoop=1;jettySize=auto;html=1;" parent="1" target="3uwgx3B2-GUYWZ_OcOjJ-31" edge="1">
          <mxGeometry relative="1" as="geometry">
            <mxPoint x="-540" y="140" as="sourcePoint" />
            <Array as="points">
              <mxPoint x="-540" y="160" />
              <mxPoint x="-690" y="160" />
            </Array>
          </mxGeometry>
        </mxCell>
        <mxCell id="3uwgx3B2-GUYWZ_OcOjJ-30" style="edgeStyle=orthogonalEdgeStyle;rounded=0;orthogonalLoop=1;jettySize=auto;html=1;" parent="1" target="3uwgx3B2-GUYWZ_OcOjJ-32" edge="1">
          <mxGeometry relative="1" as="geometry">
            <mxPoint x="-540" y="140" as="sourcePoint" />
            <Array as="points">
              <mxPoint x="-540" y="160" />
              <mxPoint x="-410" y="160" />
            </Array>
          </mxGeometry>
        </mxCell>
        <mxCell id="WRfrVHnAXv1RUym7im4i-3" style="edgeStyle=orthogonalEdgeStyle;rounded=0;orthogonalLoop=1;jettySize=auto;html=1;exitX=0.5;exitY=1;exitDx=0;exitDy=0;entryX=0.5;entryY=0;entryDx=0;entryDy=0;" edge="1" parent="1" source="3uwgx3B2-GUYWZ_OcOjJ-31" target="WRfrVHnAXv1RUym7im4i-1">
          <mxGeometry relative="1" as="geometry" />
        </mxCell>
        <mxCell id="WRfrVHnAXv1RUym7im4i-4" style="edgeStyle=orthogonalEdgeStyle;rounded=0;orthogonalLoop=1;jettySize=auto;html=1;exitX=0.5;exitY=1;exitDx=0;exitDy=0;entryX=0.5;entryY=0;entryDx=0;entryDy=0;" edge="1" parent="1" source="3uwgx3B2-GUYWZ_OcOjJ-31" target="WRfrVHnAXv1RUym7im4i-2">
          <mxGeometry relative="1" as="geometry">
            <Array as="points">
              <mxPoint x="-690" y="240" />
              <mxPoint x="-410" y="240" />
            </Array>
          </mxGeometry>
        </mxCell>
        <mxCell id="3uwgx3B2-GUYWZ_OcOjJ-31" value="row 1" style="rounded=0;whiteSpace=wrap;html=1;" parent="1" vertex="1">
          <mxGeometry x="-730" y="190" width="80" height="20" as="geometry" />
        </mxCell>
        <mxCell id="WRfrVHnAXv1RUym7im4i-5" style="edgeStyle=orthogonalEdgeStyle;rounded=0;orthogonalLoop=1;jettySize=auto;html=1;exitX=0.5;exitY=1;exitDx=0;exitDy=0;entryX=0.5;entryY=0;entryDx=0;entryDy=0;" edge="1" parent="1" source="3uwgx3B2-GUYWZ_OcOjJ-32" target="WRfrVHnAXv1RUym7im4i-1">
          <mxGeometry relative="1" as="geometry">
            <Array as="points">
              <mxPoint x="-410" y="240" />
              <mxPoint x="-690" y="240" />
            </Array>
          </mxGeometry>
        </mxCell>
        <mxCell id="3uwgx3B2-GUYWZ_OcOjJ-32" value="row n" style="rounded=0;whiteSpace=wrap;html=1;" parent="1" vertex="1">
          <mxGeometry x="-450" y="190" width="80" height="20" as="geometry" />
        </mxCell>
        <mxCell id="3uwgx3B2-GUYWZ_OcOjJ-34" value="artist_first_name" style="rounded=0;whiteSpace=wrap;html=1;" parent="1" vertex="1">
          <mxGeometry x="-1770" y="300" width="120" height="30" as="geometry" />
        </mxCell>
        <mxCell id="3uwgx3B2-GUYWZ_OcOjJ-35" value="artist_last_name" style="rounded=0;whiteSpace=wrap;html=1;" parent="1" vertex="1">
          <mxGeometry x="-1610" y="300" width="120" height="30" as="geometry" />
        </mxCell>
        <mxCell id="3uwgx3B2-GUYWZ_OcOjJ-36" value="artist_dob" style="rounded=0;whiteSpace=wrap;html=1;" parent="1" vertex="1">
          <mxGeometry x="-1450" y="300" width="120" height="30" as="geometry" />
        </mxCell>
        <mxCell id="3uwgx3B2-GUYWZ_OcOjJ-37" value="&lt;table style=&quot;border-collapse: collapse; width: 104pt; font-size: 11px;&quot; width=&quot;139&quot; cellspacing=&quot;0&quot; cellpadding=&quot;0&quot; border=&quot;0&quot;&gt;&lt;colgroup style=&quot;font-size: 11px;&quot;&gt;&lt;col style=&quot;width: 104pt; font-size: 11px;&quot; width=&quot;139&quot;&gt;&lt;/colgroup&gt;&lt;tbody style=&quot;font-size: 11px;&quot;&gt;&lt;tr style=&quot;height: 16pt; font-size: 11px;&quot; height=&quot;21&quot;&gt;&lt;td style=&quot;padding-top: 1px; padding-right: 1px; padding-left: 1px; font-size: 11px; font-family: Calibri, sans-serif; vertical-align: bottom; border: none; height: 16pt; width: 104pt;&quot; width=&quot;139&quot; height=&quot;21&quot;&gt;number_of_albums&lt;/td&gt;&lt;/tr&gt;&lt;/tbody&gt;&lt;/table&gt;" style="rounded=0;whiteSpace=wrap;html=1;fontSize=11;" parent="1" vertex="1">
          <mxGeometry x="-1290" y="300" width="120" height="30" as="geometry" />
        </mxCell>
        <mxCell id="3uwgx3B2-GUYWZ_OcOjJ-38" value="&lt;font style=&quot;font-size: 10px;&quot;&gt;number_of_grammys_won&lt;/font&gt;" style="rounded=0;whiteSpace=wrap;html=1;" parent="1" vertex="1">
          <mxGeometry x="-1130" y="300" width="120" height="30" as="geometry" />
        </mxCell>
        <mxCell id="3uwgx3B2-GUYWZ_OcOjJ-39" value="monthly_spotify_listener_M" style="rounded=0;whiteSpace=wrap;html=1;" parent="1" vertex="1">
          <mxGeometry x="-970" y="300" width="170" height="30" as="geometry" />
        </mxCell>
        <mxCell id="3uwgx3B2-GUYWZ_OcOjJ-40" value="&lt;u&gt;artist_id&lt;/u&gt;" style="rounded=0;whiteSpace=wrap;html=1;" parent="1" vertex="1">
          <mxGeometry x="-1930" y="300" width="120" height="30" as="geometry" />
        </mxCell>
        <mxCell id="WRfrVHnAXv1RUym7im4i-1" value="&lt;font style=&quot;font-size: 12px;&quot;&gt;headliner_id&lt;/font&gt;" style="rounded=0;whiteSpace=wrap;html=1;fontSize=12;fontStyle=4" vertex="1" parent="1">
          <mxGeometry x="-750" y="310" width="120" height="30" as="geometry" />
        </mxCell>
        <mxCell id="WRfrVHnAXv1RUym7im4i-2" value="&lt;font style=&quot;font-size: 12px;&quot;&gt;artist_id&lt;/font&gt;" style="rounded=0;whiteSpace=wrap;html=1;fontSize=12;" vertex="1" parent="1">
          <mxGeometry x="-470" y="310" width="120" height="30" as="geometry" />
        </mxCell>
        <mxCell id="WRfrVHnAXv1RUym7im4i-6" style="edgeStyle=orthogonalEdgeStyle;rounded=0;orthogonalLoop=1;jettySize=auto;html=1;entryX=0.5;entryY=0;entryDx=0;entryDy=0;" edge="1" parent="1" target="WRfrVHnAXv1RUym7im4i-8">
          <mxGeometry relative="1" as="geometry">
            <mxPoint x="-170" y="140" as="sourcePoint" />
            <Array as="points">
              <mxPoint x="-170" y="160" />
              <mxPoint x="-280" y="160" />
            </Array>
          </mxGeometry>
        </mxCell>
        <mxCell id="WRfrVHnAXv1RUym7im4i-7" style="edgeStyle=orthogonalEdgeStyle;rounded=0;orthogonalLoop=1;jettySize=auto;html=1;" edge="1" parent="1" target="WRfrVHnAXv1RUym7im4i-9">
          <mxGeometry relative="1" as="geometry">
            <mxPoint x="-170" y="140" as="sourcePoint" />
            <Array as="points">
              <mxPoint x="-170" y="160" />
              <mxPoint x="-40" y="160" />
            </Array>
          </mxGeometry>
        </mxCell>
        <mxCell id="WRfrVHnAXv1RUym7im4i-13" style="edgeStyle=orthogonalEdgeStyle;rounded=0;orthogonalLoop=1;jettySize=auto;html=1;exitX=0.5;exitY=1;exitDx=0;exitDy=0;entryX=0.5;entryY=0;entryDx=0;entryDy=0;" edge="1" parent="1" source="WRfrVHnAXv1RUym7im4i-8" target="WRfrVHnAXv1RUym7im4i-12">
          <mxGeometry relative="1" as="geometry" />
        </mxCell>
        <mxCell id="WRfrVHnAXv1RUym7im4i-17" style="edgeStyle=orthogonalEdgeStyle;rounded=0;orthogonalLoop=1;jettySize=auto;html=1;exitX=0.5;exitY=1;exitDx=0;exitDy=0;entryX=0.5;entryY=0;entryDx=0;entryDy=0;" edge="1" parent="1" source="WRfrVHnAXv1RUym7im4i-8" target="WRfrVHnAXv1RUym7im4i-10">
          <mxGeometry relative="1" as="geometry" />
        </mxCell>
        <mxCell id="WRfrVHnAXv1RUym7im4i-8" value="row 1" style="rounded=0;whiteSpace=wrap;html=1;" vertex="1" parent="1">
          <mxGeometry x="-320" y="190" width="80" height="20" as="geometry" />
        </mxCell>
        <mxCell id="WRfrVHnAXv1RUym7im4i-14" style="edgeStyle=orthogonalEdgeStyle;rounded=0;orthogonalLoop=1;jettySize=auto;html=1;exitX=0.5;exitY=1;exitDx=0;exitDy=0;entryX=0.5;entryY=0;entryDx=0;entryDy=0;" edge="1" parent="1" source="WRfrVHnAXv1RUym7im4i-9" target="WRfrVHnAXv1RUym7im4i-10">
          <mxGeometry relative="1" as="geometry" />
        </mxCell>
        <mxCell id="WRfrVHnAXv1RUym7im4i-18" style="edgeStyle=orthogonalEdgeStyle;rounded=0;orthogonalLoop=1;jettySize=auto;html=1;exitX=0.5;exitY=1;exitDx=0;exitDy=0;entryX=0.5;entryY=0;entryDx=0;entryDy=0;" edge="1" parent="1" source="WRfrVHnAXv1RUym7im4i-9" target="WRfrVHnAXv1RUym7im4i-12">
          <mxGeometry relative="1" as="geometry" />
        </mxCell>
        <mxCell id="WRfrVHnAXv1RUym7im4i-9" value="row n" style="rounded=0;whiteSpace=wrap;html=1;" vertex="1" parent="1">
          <mxGeometry x="-80" y="190" width="80" height="20" as="geometry" />
        </mxCell>
        <mxCell id="WRfrVHnAXv1RUym7im4i-10" value="&lt;font style=&quot;font-size: 12px;&quot;&gt;artist_id&lt;/font&gt;" style="rounded=0;whiteSpace=wrap;html=1;fontSize=12;" vertex="1" parent="1">
          <mxGeometry x="-120" y="260" width="120" height="30" as="geometry" />
        </mxCell>
        <mxCell id="WRfrVHnAXv1RUym7im4i-11" style="edgeStyle=orthogonalEdgeStyle;rounded=0;orthogonalLoop=1;jettySize=auto;html=1;exitX=0.5;exitY=1;exitDx=0;exitDy=0;" edge="1" parent="1" source="WRfrVHnAXv1RUym7im4i-8" target="WRfrVHnAXv1RUym7im4i-8">
          <mxGeometry relative="1" as="geometry" />
        </mxCell>
        <mxCell id="WRfrVHnAXv1RUym7im4i-12" value="&lt;font style=&quot;font-size: 12px;&quot;&gt;opener_id&lt;/font&gt;" style="rounded=0;whiteSpace=wrap;html=1;fontSize=12;" vertex="1" parent="1">
          <mxGeometry x="-290" y="260" width="120" height="30" as="geometry" />
        </mxCell>
        <mxCell id="WRfrVHnAXv1RUym7im4i-27" value="" style="edgeStyle=orthogonalEdgeStyle;rounded=0;orthogonalLoop=1;jettySize=auto;html=1;" edge="1" parent="1" source="WRfrVHnAXv1RUym7im4i-19" target="WRfrVHnAXv1RUym7im4i-24">
          <mxGeometry relative="1" as="geometry" />
        </mxCell>
        <mxCell id="WRfrVHnAXv1RUym7im4i-28" style="edgeStyle=orthogonalEdgeStyle;rounded=0;orthogonalLoop=1;jettySize=auto;html=1;exitX=0.5;exitY=1;exitDx=0;exitDy=0;" edge="1" parent="1" source="WRfrVHnAXv1RUym7im4i-19" target="WRfrVHnAXv1RUym7im4i-23">
          <mxGeometry relative="1" as="geometry" />
        </mxCell>
        <mxCell id="WRfrVHnAXv1RUym7im4i-29" style="edgeStyle=orthogonalEdgeStyle;rounded=0;orthogonalLoop=1;jettySize=auto;html=1;exitX=0.5;exitY=1;exitDx=0;exitDy=0;entryX=0.5;entryY=0;entryDx=0;entryDy=0;" edge="1" parent="1" source="WRfrVHnAXv1RUym7im4i-19" target="WRfrVHnAXv1RUym7im4i-25">
          <mxGeometry relative="1" as="geometry" />
        </mxCell>
        <mxCell id="WRfrVHnAXv1RUym7im4i-30" style="edgeStyle=orthogonalEdgeStyle;rounded=0;orthogonalLoop=1;jettySize=auto;html=1;exitX=0.5;exitY=1;exitDx=0;exitDy=0;" edge="1" parent="1" source="WRfrVHnAXv1RUym7im4i-19" target="WRfrVHnAXv1RUym7im4i-26">
          <mxGeometry relative="1" as="geometry" />
        </mxCell>
        <mxCell id="WRfrVHnAXv1RUym7im4i-19" value="row 1" style="rounded=0;whiteSpace=wrap;html=1;" vertex="1" parent="1">
          <mxGeometry x="50" y="350" width="80" height="20" as="geometry" />
        </mxCell>
        <mxCell id="WRfrVHnAXv1RUym7im4i-31" style="edgeStyle=orthogonalEdgeStyle;rounded=0;orthogonalLoop=1;jettySize=auto;html=1;exitX=0.5;exitY=1;exitDx=0;exitDy=0;entryX=0.5;entryY=0;entryDx=0;entryDy=0;" edge="1" parent="1" source="WRfrVHnAXv1RUym7im4i-20" target="WRfrVHnAXv1RUym7im4i-25">
          <mxGeometry relative="1" as="geometry" />
        </mxCell>
        <mxCell id="WRfrVHnAXv1RUym7im4i-20" value="row n" style="rounded=0;whiteSpace=wrap;html=1;" vertex="1" parent="1">
          <mxGeometry x="230" y="350" width="80" height="20" as="geometry" />
        </mxCell>
        <mxCell id="WRfrVHnAXv1RUym7im4i-23" value="&lt;font style=&quot;font-size: 12px;&quot;&gt;tour_id&lt;/font&gt;" style="rounded=0;whiteSpace=wrap;html=1;fontSize=12;fontStyle=4" vertex="1" parent="1">
          <mxGeometry x="-120" y="425" width="120" height="30" as="geometry" />
        </mxCell>
        <mxCell id="WRfrVHnAXv1RUym7im4i-24" value="&lt;font style=&quot;font-size: 12px;&quot;&gt;tour_name&lt;/font&gt;" style="rounded=0;whiteSpace=wrap;html=1;fontSize=12;" vertex="1" parent="1">
          <mxGeometry x="40" y="425" width="120" height="30" as="geometry" />
        </mxCell>
        <mxCell id="WRfrVHnAXv1RUym7im4i-25" value="&lt;font style=&quot;font-size: 12px;&quot;&gt;headliner_id&lt;/font&gt;" style="rounded=0;whiteSpace=wrap;html=1;fontSize=12;" vertex="1" parent="1">
          <mxGeometry x="200" y="425" width="120" height="30" as="geometry" />
        </mxCell>
        <mxCell id="WRfrVHnAXv1RUym7im4i-26" value="opener_id" style="rounded=0;whiteSpace=wrap;html=1;fontSize=12;" vertex="1" parent="1">
          <mxGeometry x="360" y="425" width="120" height="30" as="geometry" />
        </mxCell>
        <mxCell id="WRfrVHnAXv1RUym7im4i-41" style="edgeStyle=orthogonalEdgeStyle;rounded=0;orthogonalLoop=1;jettySize=auto;html=1;exitX=0.5;exitY=1;exitDx=0;exitDy=0;" edge="1" parent="1" source="WRfrVHnAXv1RUym7im4i-32" target="WRfrVHnAXv1RUym7im4i-36">
          <mxGeometry relative="1" as="geometry" />
        </mxCell>
        <mxCell id="WRfrVHnAXv1RUym7im4i-42" style="edgeStyle=orthogonalEdgeStyle;rounded=0;orthogonalLoop=1;jettySize=auto;html=1;exitX=0.5;exitY=1;exitDx=0;exitDy=0;" edge="1" parent="1" source="WRfrVHnAXv1RUym7im4i-32" target="WRfrVHnAXv1RUym7im4i-38">
          <mxGeometry relative="1" as="geometry" />
        </mxCell>
        <mxCell id="WRfrVHnAXv1RUym7im4i-32" value="row 1" style="rounded=0;whiteSpace=wrap;html=1;" vertex="1" parent="1">
          <mxGeometry x="490" y="190" width="80" height="20" as="geometry" />
        </mxCell>
        <mxCell id="WRfrVHnAXv1RUym7im4i-43" style="edgeStyle=orthogonalEdgeStyle;rounded=0;orthogonalLoop=1;jettySize=auto;html=1;exitX=0.5;exitY=1;exitDx=0;exitDy=0;entryX=0.5;entryY=0;entryDx=0;entryDy=0;" edge="1" parent="1" source="WRfrVHnAXv1RUym7im4i-33" target="WRfrVHnAXv1RUym7im4i-37">
          <mxGeometry relative="1" as="geometry" />
        </mxCell>
        <mxCell id="WRfrVHnAXv1RUym7im4i-44" style="edgeStyle=orthogonalEdgeStyle;rounded=0;orthogonalLoop=1;jettySize=auto;html=1;exitX=0.5;exitY=1;exitDx=0;exitDy=0;" edge="1" parent="1" source="WRfrVHnAXv1RUym7im4i-33" target="WRfrVHnAXv1RUym7im4i-39">
          <mxGeometry relative="1" as="geometry" />
        </mxCell>
        <mxCell id="WRfrVHnAXv1RUym7im4i-33" value="row n" style="rounded=0;whiteSpace=wrap;html=1;" vertex="1" parent="1">
          <mxGeometry x="670" y="190" width="80" height="20" as="geometry" />
        </mxCell>
        <mxCell id="WRfrVHnAXv1RUym7im4i-36" value="&lt;font style=&quot;font-size: 12px;&quot;&gt;customer_id&lt;/font&gt;" style="rounded=0;whiteSpace=wrap;html=1;fontSize=12;fontStyle=4" vertex="1" parent="1">
          <mxGeometry x="340" y="280" width="120" height="30" as="geometry" />
        </mxCell>
        <mxCell id="WRfrVHnAXv1RUym7im4i-37" value="&lt;font style=&quot;font-size: 12px;&quot;&gt;tour_id&lt;/font&gt;" style="rounded=0;whiteSpace=wrap;html=1;fontSize=12;fontStyle=4" vertex="1" parent="1">
          <mxGeometry x="500" y="280" width="120" height="30" as="geometry" />
        </mxCell>
        <mxCell id="WRfrVHnAXv1RUym7im4i-38" value="&lt;font style=&quot;font-size: 12px;&quot;&gt;attendance_date&lt;/font&gt;" style="rounded=0;whiteSpace=wrap;html=1;fontSize=12;" vertex="1" parent="1">
          <mxGeometry x="660" y="280" width="120" height="30" as="geometry" />
        </mxCell>
        <mxCell id="WRfrVHnAXv1RUym7im4i-39" value="venue_id" style="rounded=0;whiteSpace=wrap;html=1;fontSize=12;" vertex="1" parent="1">
          <mxGeometry x="820" y="280" width="120" height="30" as="geometry" />
        </mxCell>
        <mxCell id="WRfrVHnAXv1RUym7im4i-57" style="edgeStyle=orthogonalEdgeStyle;rounded=0;orthogonalLoop=1;jettySize=auto;html=1;exitX=0.5;exitY=1;exitDx=0;exitDy=0;" edge="1" parent="1" source="WRfrVHnAXv1RUym7im4i-45" target="WRfrVHnAXv1RUym7im4i-48">
          <mxGeometry relative="1" as="geometry" />
        </mxCell>
        <mxCell id="WRfrVHnAXv1RUym7im4i-45" value="row 1" style="rounded=0;whiteSpace=wrap;html=1;" vertex="1" parent="1">
          <mxGeometry x="1030" y="190" width="80" height="20" as="geometry" />
        </mxCell>
        <mxCell id="WRfrVHnAXv1RUym7im4i-58" style="edgeStyle=orthogonalEdgeStyle;rounded=0;orthogonalLoop=1;jettySize=auto;html=1;exitX=0.5;exitY=1;exitDx=0;exitDy=0;entryX=0.5;entryY=0;entryDx=0;entryDy=0;" edge="1" parent="1" source="WRfrVHnAXv1RUym7im4i-46" target="WRfrVHnAXv1RUym7im4i-47">
          <mxGeometry relative="1" as="geometry" />
        </mxCell>
        <mxCell id="WRfrVHnAXv1RUym7im4i-46" value="row n" style="rounded=0;whiteSpace=wrap;html=1;" vertex="1" parent="1">
          <mxGeometry x="1210" y="190" width="80" height="20" as="geometry" />
        </mxCell>
        <mxCell id="WRfrVHnAXv1RUym7im4i-47" value="&lt;font style=&quot;font-size: 12px;&quot;&gt;genre_id&lt;/font&gt;" style="rounded=0;whiteSpace=wrap;html=1;fontSize=12;fontStyle=4" vertex="1" parent="1">
          <mxGeometry x="1020" y="250" width="120" height="30" as="geometry" />
        </mxCell>
        <mxCell id="WRfrVHnAXv1RUym7im4i-48" value="genre_name" style="rounded=0;whiteSpace=wrap;html=1;fontSize=12;" vertex="1" parent="1">
          <mxGeometry x="1180" y="250" width="120" height="30" as="geometry" />
        </mxCell>
        <mxCell id="WRfrVHnAXv1RUym7im4i-61" style="edgeStyle=orthogonalEdgeStyle;rounded=0;orthogonalLoop=1;jettySize=auto;html=1;exitX=0.5;exitY=1;exitDx=0;exitDy=0;" edge="1" parent="1" source="WRfrVHnAXv1RUym7im4i-50" target="WRfrVHnAXv1RUym7im4i-53">
          <mxGeometry relative="1" as="geometry" />
        </mxCell>
        <mxCell id="WRfrVHnAXv1RUym7im4i-50" value="row 1" style="rounded=0;whiteSpace=wrap;html=1;" vertex="1" parent="1">
          <mxGeometry x="1370" y="190" width="80" height="20" as="geometry" />
        </mxCell>
        <mxCell id="WRfrVHnAXv1RUym7im4i-62" style="edgeStyle=orthogonalEdgeStyle;rounded=0;orthogonalLoop=1;jettySize=auto;html=1;exitX=0.5;exitY=1;exitDx=0;exitDy=0;entryX=0.5;entryY=0;entryDx=0;entryDy=0;" edge="1" parent="1" source="WRfrVHnAXv1RUym7im4i-51" target="WRfrVHnAXv1RUym7im4i-52">
          <mxGeometry relative="1" as="geometry" />
        </mxCell>
        <mxCell id="WRfrVHnAXv1RUym7im4i-51" value="row n" style="rounded=0;whiteSpace=wrap;html=1;" vertex="1" parent="1">
          <mxGeometry x="1550" y="190" width="80" height="20" as="geometry" />
        </mxCell>
        <mxCell id="WRfrVHnAXv1RUym7im4i-52" value="genre_id" style="rounded=0;whiteSpace=wrap;html=1;fontSize=12;fontStyle=4" vertex="1" parent="1">
          <mxGeometry x="1360" y="250" width="120" height="30" as="geometry" />
        </mxCell>
        <mxCell id="WRfrVHnAXv1RUym7im4i-53" value="artist_id" style="rounded=0;whiteSpace=wrap;html=1;fontSize=12;fontStyle=4" vertex="1" parent="1">
          <mxGeometry x="1520" y="250" width="120" height="30" as="geometry" />
        </mxCell>
        <mxCell id="WRfrVHnAXv1RUym7im4i-71" style="edgeStyle=orthogonalEdgeStyle;rounded=0;orthogonalLoop=1;jettySize=auto;html=1;exitX=0.5;exitY=1;exitDx=0;exitDy=0;entryX=0.5;entryY=0;entryDx=0;entryDy=0;" edge="1" parent="1" source="WRfrVHnAXv1RUym7im4i-63" target="WRfrVHnAXv1RUym7im4i-69">
          <mxGeometry relative="1" as="geometry" />
        </mxCell>
        <mxCell id="WRfrVHnAXv1RUym7im4i-73" style="edgeStyle=orthogonalEdgeStyle;rounded=0;orthogonalLoop=1;jettySize=auto;html=1;exitX=0.5;exitY=1;exitDx=0;exitDy=0;" edge="1" parent="1" source="WRfrVHnAXv1RUym7im4i-63" target="WRfrVHnAXv1RUym7im4i-67">
          <mxGeometry relative="1" as="geometry" />
        </mxCell>
        <mxCell id="WRfrVHnAXv1RUym7im4i-63" value="row 1" style="rounded=0;whiteSpace=wrap;html=1;" vertex="1" parent="1">
          <mxGeometry x="1870" y="180" width="80" height="20" as="geometry" />
        </mxCell>
        <mxCell id="WRfrVHnAXv1RUym7im4i-72" style="edgeStyle=orthogonalEdgeStyle;rounded=0;orthogonalLoop=1;jettySize=auto;html=1;exitX=0.5;exitY=1;exitDx=0;exitDy=0;" edge="1" parent="1" source="WRfrVHnAXv1RUym7im4i-64" target="WRfrVHnAXv1RUym7im4i-68">
          <mxGeometry relative="1" as="geometry" />
        </mxCell>
        <mxCell id="WRfrVHnAXv1RUym7im4i-74" style="edgeStyle=orthogonalEdgeStyle;rounded=0;orthogonalLoop=1;jettySize=auto;html=1;exitX=0.5;exitY=1;exitDx=0;exitDy=0;" edge="1" parent="1" source="WRfrVHnAXv1RUym7im4i-64" target="WRfrVHnAXv1RUym7im4i-70">
          <mxGeometry relative="1" as="geometry" />
        </mxCell>
        <mxCell id="WRfrVHnAXv1RUym7im4i-64" value="row n" style="rounded=0;whiteSpace=wrap;html=1;" vertex="1" parent="1">
          <mxGeometry x="2050" y="180" width="80" height="20" as="geometry" />
        </mxCell>
        <mxCell id="WRfrVHnAXv1RUym7im4i-67" value="&lt;font style=&quot;font-size: 12px;&quot;&gt;album_id&lt;/font&gt;" style="rounded=0;whiteSpace=wrap;html=1;fontSize=12;fontStyle=4" vertex="1" parent="1">
          <mxGeometry x="1720" y="240" width="120" height="30" as="geometry" />
        </mxCell>
        <mxCell id="WRfrVHnAXv1RUym7im4i-68" value="artist_id" style="rounded=0;whiteSpace=wrap;html=1;fontSize=12;" vertex="1" parent="1">
          <mxGeometry x="1880" y="240" width="120" height="30" as="geometry" />
        </mxCell>
        <mxCell id="WRfrVHnAXv1RUym7im4i-69" value="&lt;font style=&quot;font-size: 12px;&quot;&gt;album_name&lt;/font&gt;" style="rounded=0;whiteSpace=wrap;html=1;fontSize=12;" vertex="1" parent="1">
          <mxGeometry x="2020" y="240" width="120" height="30" as="geometry" />
        </mxCell>
        <mxCell id="WRfrVHnAXv1RUym7im4i-70" value="album_release_date" style="rounded=0;whiteSpace=wrap;html=1;fontSize=12;" vertex="1" parent="1">
          <mxGeometry x="2180" y="240" width="120" height="30" as="geometry" />
        </mxCell>
        <mxCell id="WRfrVHnAXv1RUym7im4i-75" style="edgeStyle=orthogonalEdgeStyle;rounded=0;orthogonalLoop=1;jettySize=auto;html=1;exitX=0.5;exitY=1;exitDx=0;exitDy=0;entryX=0.5;entryY=0;entryDx=0;entryDy=0;" edge="1" parent="1" target="WRfrVHnAXv1RUym7im4i-79" source="3uwgx3B2-GUYWZ_OcOjJ-10">
          <mxGeometry relative="1" as="geometry">
            <mxPoint x="2660" y="190" as="sourcePoint" />
          </mxGeometry>
        </mxCell>
        <mxCell id="WRfrVHnAXv1RUym7im4i-76" style="edgeStyle=orthogonalEdgeStyle;rounded=0;orthogonalLoop=1;jettySize=auto;html=1;exitX=0.5;exitY=1;exitDx=0;exitDy=0;entryX=0.5;entryY=0;entryDx=0;entryDy=0;" edge="1" parent="1" target="WRfrVHnAXv1RUym7im4i-82" source="3uwgx3B2-GUYWZ_OcOjJ-10">
          <mxGeometry relative="1" as="geometry">
            <mxPoint x="2660" y="190" as="sourcePoint" />
          </mxGeometry>
        </mxCell>
        <mxCell id="WRfrVHnAXv1RUym7im4i-89" style="edgeStyle=orthogonalEdgeStyle;rounded=0;orthogonalLoop=1;jettySize=auto;html=1;exitX=0.5;exitY=1;exitDx=0;exitDy=0;" edge="1" parent="1" source="WRfrVHnAXv1RUym7im4i-79" target="WRfrVHnAXv1RUym7im4i-83">
          <mxGeometry relative="1" as="geometry" />
        </mxCell>
        <mxCell id="WRfrVHnAXv1RUym7im4i-90" style="edgeStyle=orthogonalEdgeStyle;rounded=0;orthogonalLoop=1;jettySize=auto;html=1;exitX=0.5;exitY=1;exitDx=0;exitDy=0;" edge="1" parent="1" source="WRfrVHnAXv1RUym7im4i-79" target="WRfrVHnAXv1RUym7im4i-84">
          <mxGeometry relative="1" as="geometry" />
        </mxCell>
        <mxCell id="WRfrVHnAXv1RUym7im4i-91" style="edgeStyle=orthogonalEdgeStyle;rounded=0;orthogonalLoop=1;jettySize=auto;html=1;exitX=0.5;exitY=1;exitDx=0;exitDy=0;" edge="1" parent="1" source="WRfrVHnAXv1RUym7im4i-79" target="WRfrVHnAXv1RUym7im4i-85">
          <mxGeometry relative="1" as="geometry" />
        </mxCell>
        <mxCell id="WRfrVHnAXv1RUym7im4i-79" value="row 1" style="rounded=0;whiteSpace=wrap;html=1;" vertex="1" parent="1">
          <mxGeometry x="2530" y="230" width="80" height="20" as="geometry" />
        </mxCell>
        <mxCell id="WRfrVHnAXv1RUym7im4i-81" style="edgeStyle=orthogonalEdgeStyle;rounded=0;orthogonalLoop=1;jettySize=auto;html=1;exitX=0.5;exitY=1;exitDx=0;exitDy=0;" edge="1" parent="1" source="WRfrVHnAXv1RUym7im4i-79" target="WRfrVHnAXv1RUym7im4i-86">
          <mxGeometry relative="1" as="geometry">
            <mxPoint x="2750" y="325" as="sourcePoint" />
          </mxGeometry>
        </mxCell>
        <mxCell id="WRfrVHnAXv1RUym7im4i-88" style="edgeStyle=orthogonalEdgeStyle;rounded=0;orthogonalLoop=1;jettySize=auto;html=1;exitX=0.5;exitY=1;exitDx=0;exitDy=0;" edge="1" parent="1" source="WRfrVHnAXv1RUym7im4i-82" target="WRfrVHnAXv1RUym7im4i-87">
          <mxGeometry relative="1" as="geometry">
            <mxPoint x="2750" y="325" as="sourcePoint" />
          </mxGeometry>
        </mxCell>
        <mxCell id="WRfrVHnAXv1RUym7im4i-82" value="row n" style="rounded=0;whiteSpace=wrap;html=1;" vertex="1" parent="1">
          <mxGeometry x="2710" y="230" width="80" height="20" as="geometry" />
        </mxCell>
        <mxCell id="WRfrVHnAXv1RUym7im4i-83" value="&lt;font style=&quot;font-size: 12px;&quot;&gt;single_id&lt;/font&gt;" style="rounded=0;whiteSpace=wrap;html=1;fontSize=12;fontStyle=4" vertex="1" parent="1">
          <mxGeometry x="2290" y="365" width="120" height="30" as="geometry" />
        </mxCell>
        <mxCell id="WRfrVHnAXv1RUym7im4i-84" value="album_id" style="rounded=0;whiteSpace=wrap;html=1;fontSize=12;" vertex="1" parent="1">
          <mxGeometry x="2450" y="365" width="120" height="30" as="geometry" />
        </mxCell>
        <mxCell id="WRfrVHnAXv1RUym7im4i-85" value="&lt;font style=&quot;font-size: 12px;&quot;&gt;song_name&lt;/font&gt;" style="rounded=0;whiteSpace=wrap;html=1;fontSize=12;" vertex="1" parent="1">
          <mxGeometry x="2590" y="365" width="120" height="30" as="geometry" />
        </mxCell>
        <mxCell id="WRfrVHnAXv1RUym7im4i-86" value="single_release_date" style="rounded=0;whiteSpace=wrap;html=1;fontSize=12;" vertex="1" parent="1">
          <mxGeometry x="2750" y="365" width="120" height="30" as="geometry" />
        </mxCell>
        <mxCell id="WRfrVHnAXv1RUym7im4i-87" value="highest_US_ranking" style="rounded=0;whiteSpace=wrap;html=1;fontSize=12;" vertex="1" parent="1">
          <mxGeometry x="2900" y="365" width="120" height="30" as="geometry" />
        </mxCell>
        <mxCell id="WRfrVHnAXv1RUym7im4i-100" style="edgeStyle=orthogonalEdgeStyle;rounded=0;orthogonalLoop=1;jettySize=auto;html=1;exitX=0.5;exitY=1;exitDx=0;exitDy=0;" edge="1" parent="1" source="WRfrVHnAXv1RUym7im4i-92" target="WRfrVHnAXv1RUym7im4i-98">
          <mxGeometry relative="1" as="geometry" />
        </mxCell>
        <mxCell id="WRfrVHnAXv1RUym7im4i-103" style="edgeStyle=orthogonalEdgeStyle;rounded=0;orthogonalLoop=1;jettySize=auto;html=1;exitX=0.5;exitY=1;exitDx=0;exitDy=0;" edge="1" parent="1" source="WRfrVHnAXv1RUym7im4i-92" target="WRfrVHnAXv1RUym7im4i-96">
          <mxGeometry relative="1" as="geometry" />
        </mxCell>
        <mxCell id="WRfrVHnAXv1RUym7im4i-92" value="row 1" style="rounded=0;whiteSpace=wrap;html=1;" vertex="1" parent="1">
          <mxGeometry x="3000" y="180" width="80" height="20" as="geometry" />
        </mxCell>
        <mxCell id="WRfrVHnAXv1RUym7im4i-101" style="edgeStyle=orthogonalEdgeStyle;rounded=0;orthogonalLoop=1;jettySize=auto;html=1;exitX=0.5;exitY=1;exitDx=0;exitDy=0;" edge="1" parent="1" source="WRfrVHnAXv1RUym7im4i-93" target="WRfrVHnAXv1RUym7im4i-97">
          <mxGeometry relative="1" as="geometry" />
        </mxCell>
        <mxCell id="WRfrVHnAXv1RUym7im4i-102" style="edgeStyle=orthogonalEdgeStyle;rounded=0;orthogonalLoop=1;jettySize=auto;html=1;exitX=0.5;exitY=1;exitDx=0;exitDy=0;" edge="1" parent="1" source="WRfrVHnAXv1RUym7im4i-93" target="WRfrVHnAXv1RUym7im4i-99">
          <mxGeometry relative="1" as="geometry" />
        </mxCell>
        <mxCell id="WRfrVHnAXv1RUym7im4i-93" value="row n" style="rounded=0;whiteSpace=wrap;html=1;" vertex="1" parent="1">
          <mxGeometry x="3180" y="180" width="80" height="20" as="geometry" />
        </mxCell>
        <mxCell id="WRfrVHnAXv1RUym7im4i-96" value="&lt;font style=&quot;font-size: 12px;&quot;&gt;venue_id&lt;/font&gt;" style="rounded=0;whiteSpace=wrap;html=1;fontSize=12;fontStyle=4" vertex="1" parent="1">
          <mxGeometry x="2830" y="250" width="120" height="30" as="geometry" />
        </mxCell>
        <mxCell id="WRfrVHnAXv1RUym7im4i-97" value="venue_name" style="rounded=0;whiteSpace=wrap;html=1;fontSize=12;" vertex="1" parent="1">
          <mxGeometry x="2990" y="250" width="120" height="30" as="geometry" />
        </mxCell>
        <mxCell id="WRfrVHnAXv1RUym7im4i-98" value="capacity" style="rounded=0;whiteSpace=wrap;html=1;fontSize=12;" vertex="1" parent="1">
          <mxGeometry x="3130" y="250" width="120" height="30" as="geometry" />
        </mxCell>
        <mxCell id="WRfrVHnAXv1RUym7im4i-99" value="location" style="rounded=0;whiteSpace=wrap;html=1;fontSize=12;" vertex="1" parent="1">
          <mxGeometry x="3290" y="250" width="120" height="30" as="geometry" />
        </mxCell>
        <mxCell id="WRfrVHnAXv1RUym7im4i-111" style="edgeStyle=orthogonalEdgeStyle;rounded=0;orthogonalLoop=1;jettySize=auto;html=1;exitX=0.5;exitY=1;exitDx=0;exitDy=0;" edge="1" parent="1" source="WRfrVHnAXv1RUym7im4i-104" target="WRfrVHnAXv1RUym7im4i-106">
          <mxGeometry relative="1" as="geometry" />
        </mxCell>
        <mxCell id="WRfrVHnAXv1RUym7im4i-112" style="edgeStyle=orthogonalEdgeStyle;rounded=0;orthogonalLoop=1;jettySize=auto;html=1;exitX=0.5;exitY=1;exitDx=0;exitDy=0;" edge="1" parent="1" source="WRfrVHnAXv1RUym7im4i-104" target="WRfrVHnAXv1RUym7im4i-108">
          <mxGeometry relative="1" as="geometry" />
        </mxCell>
        <mxCell id="WRfrVHnAXv1RUym7im4i-104" value="row 1" style="rounded=0;whiteSpace=wrap;html=1;" vertex="1" parent="1">
          <mxGeometry x="3600" y="170" width="80" height="20" as="geometry" />
        </mxCell>
        <mxCell id="WRfrVHnAXv1RUym7im4i-113" style="edgeStyle=orthogonalEdgeStyle;rounded=0;orthogonalLoop=1;jettySize=auto;html=1;exitX=0.5;exitY=1;exitDx=0;exitDy=0;" edge="1" parent="1" source="WRfrVHnAXv1RUym7im4i-105" target="WRfrVHnAXv1RUym7im4i-107">
          <mxGeometry relative="1" as="geometry" />
        </mxCell>
        <mxCell id="WRfrVHnAXv1RUym7im4i-105" value="row n" style="rounded=0;whiteSpace=wrap;html=1;" vertex="1" parent="1">
          <mxGeometry x="3780" y="170" width="80" height="20" as="geometry" />
        </mxCell>
        <mxCell id="WRfrVHnAXv1RUym7im4i-106" value="&lt;font style=&quot;font-size: 12px;&quot;&gt;venue_id&lt;/font&gt;" style="rounded=0;whiteSpace=wrap;html=1;fontSize=12;fontStyle=4" vertex="1" parent="1">
          <mxGeometry x="3510" y="230" width="120" height="30" as="geometry" />
        </mxCell>
        <mxCell id="WRfrVHnAXv1RUym7im4i-107" value="venue_name" style="rounded=0;whiteSpace=wrap;html=1;fontSize=12;" vertex="1" parent="1">
          <mxGeometry x="3670" y="230" width="120" height="30" as="geometry" />
        </mxCell>
        <mxCell id="WRfrVHnAXv1RUym7im4i-108" value="capacity" style="rounded=0;whiteSpace=wrap;html=1;fontSize=12;" vertex="1" parent="1">
          <mxGeometry x="3810" y="230" width="120" height="30" as="geometry" />
        </mxCell>
      </root>
    </mxGraphModel>
  </diagram>
</mxfile>
